<svg width="226" height="75" viewBox="0 0 226 75" fill="none" xmlns="http://www.w3.org/2000/svg">
<rect x="0.5" y="0.505859" width="225" height="74" rx="6.5" fill="#0C0D10"/>
<rect x="0.5" y="0.505859" width="225" height="74" rx="6.5" stroke="#A6A6A6"/>
<path d="M153.54 36.0075V40.3032H150.836V43.1203H153.54V52.6921C153.54 55.9605 155.026 57.2679 158.762 57.2679C159.418 57.2679 160.044 57.1901 160.591 57.0967V54.3108C160.122 54.3574 159.825 54.3886 159.309 54.3886C157.636 54.3886 156.902 53.6104 156.902 51.8361V43.1203H160.591V40.3032H156.902V36.0075H153.54Z" fill="white"/>
<path d="M170.109 57.5014C175.08 57.5014 178.129 54.1862 178.129 48.6922C178.129 43.2292 175.065 39.8985 170.109 39.8985C165.138 39.8985 162.074 43.2292 162.074 48.6922C162.074 54.1862 165.122 57.5014 170.109 57.5014ZM170.109 54.5287C167.186 54.5287 165.544 52.3964 165.544 48.6922C165.544 45.0191 167.186 42.8712 170.109 42.8712C173.017 42.8712 174.674 45.0191 174.674 48.6922C174.674 52.3808 173.017 54.5287 170.109 54.5287Z" fill="white"/>
<path d="M180.737 57.1745H184.098V47.1669C184.098 44.7856 185.896 43.1825 188.444 43.1825C189.038 43.1825 190.039 43.2915 190.32 43.3849V40.0853C189.961 39.9919 189.32 39.9452 188.819 39.9452C186.599 39.9452 184.708 41.1592 184.223 42.8245H183.973V40.2254H180.737V57.1745Z" fill="white"/>
<path d="M198.666 42.7467C201.151 42.7467 202.777 44.4743 202.855 47.1358H194.257C194.445 44.4899 196.18 42.7467 198.666 42.7467ZM202.84 52.5987C202.214 53.9217 200.823 54.6532 198.791 54.6532C196.102 54.6532 194.367 52.7699 194.257 49.7972V49.6104H206.279V48.4431C206.279 43.1203 203.418 39.8985 198.681 39.8985C193.882 39.8985 190.834 43.3382 190.834 48.7544C190.834 54.1707 193.82 57.5014 198.697 57.5014C202.59 57.5014 205.31 55.6337 206.076 52.5987H202.84Z" fill="white"/>
<path d="M131.499 50.9155C131.758 55.0774 135.242 57.7391 140.427 57.7391C145.968 57.7391 149.436 54.9484 149.436 50.496C149.436 46.9955 147.459 45.0597 142.663 43.9466L140.086 43.3175C137.04 42.6077 135.809 41.6559 135.809 39.9944C135.809 37.8973 137.721 36.5261 140.589 36.5261C143.311 36.5261 145.19 37.865 145.531 40.0105H149.063C148.852 36.0905 145.385 33.332 140.637 33.332C135.533 33.332 132.131 36.0905 132.131 40.2364C132.131 43.6562 134.059 45.6888 138.288 46.6729L141.302 47.3988C144.396 48.1247 145.758 49.1894 145.758 50.9639C145.758 53.0287 143.619 54.5289 140.702 54.5289C137.575 54.5289 135.404 53.1255 135.096 50.9155H131.499Z" fill="white"/>
<path d="M96.6809 39.9452C94.3671 39.9452 92.3661 41.0969 91.3343 43.0269H91.0842V40.2254H87.8481V62.8087H91.2093V54.6065H91.475C92.3661 56.3963 94.289 57.4547 96.7121 57.4547C101.011 57.4547 103.747 54.0773 103.747 48.6922C103.747 43.307 101.011 39.9452 96.6809 39.9452ZM95.7272 54.4508C92.9133 54.4508 91.1467 52.2407 91.1467 48.7077C91.1467 45.1591 92.9133 42.9491 95.7429 42.9491C98.5881 42.9491 100.292 45.1125 100.292 48.6922C100.292 52.2874 98.5881 54.4508 95.7272 54.4508Z" fill="white"/>
<path d="M115.508 39.9452C113.194 39.9452 111.193 41.0969 110.162 43.0269H109.911V40.2254H106.675V62.8087H110.037V54.6065H110.302C111.193 56.3963 113.116 57.4547 115.539 57.4547C119.839 57.4547 122.574 54.0773 122.574 48.6922C122.574 43.307 119.839 39.9452 115.508 39.9452ZM114.555 54.4508C111.741 54.4508 109.974 52.2407 109.974 48.7077C109.974 45.1591 111.741 42.9491 114.57 42.9491C117.415 42.9491 119.119 45.1125 119.119 48.6922C119.119 52.2874 117.415 54.4508 114.555 54.4508Z" fill="white"/>
<path d="M81.8177 57.1745H85.6741L77.2322 33.8966H73.3272L64.8853 57.1745H68.612L70.767 50.9961H79.6789L81.8177 57.1745ZM75.0933 38.1231H75.3688L78.7553 47.9634H71.6906L75.0933 38.1231Z" fill="white"/>
<path d="M67.1431 16.3387V27.5681H71.2155C74.5766 27.5681 76.523 25.5058 76.523 21.9183C76.523 18.3853 74.561 16.3387 71.2155 16.3387H67.1431ZM68.894 17.9262H71.0201C73.3572 17.9262 74.7408 19.4048 74.7408 21.9417C74.7408 24.5175 73.3807 25.9805 71.0201 25.9805H68.894V17.9262Z" fill="white"/>
<path d="M82.4839 27.7315C84.9695 27.7315 86.4938 26.0739 86.4938 23.3269C86.4938 20.5954 84.9617 18.9301 82.4839 18.9301C79.9982 18.9301 78.4661 20.5954 78.4661 23.3269C78.4661 26.0739 79.9904 27.7315 82.4839 27.7315ZM82.4839 26.2451C81.0222 26.2451 80.2014 25.179 80.2014 23.3269C80.2014 21.4903 81.0222 20.4164 82.4839 20.4164C83.9377 20.4164 84.7663 21.4903 84.7663 23.3269C84.7663 25.1712 83.9377 26.2451 82.4839 26.2451Z" fill="white"/>
<path d="M99.474 19.0935H97.7934L96.277 25.5603H96.1441L94.3932 19.0935H92.783L91.0321 25.5603H90.907L89.3828 19.0935H87.6788L90.0237 27.5681H91.7512L93.5021 21.3269H93.635L95.3937 27.5681H97.1368L99.474 19.0935Z" fill="white"/>
<path d="M101.409 27.5681H103.09V22.6109C103.09 21.288 103.879 20.4631 105.122 20.4631C106.365 20.4631 106.959 21.1401 106.959 22.502V27.5681H108.64V22.0818C108.64 20.0662 107.592 18.9301 105.693 18.9301C104.411 18.9301 103.567 19.4981 103.152 20.4398H103.027V19.0935H101.409V27.5681Z" fill="white"/>
<path d="M111.286 27.5681H112.967V15.7861H111.286V27.5681Z" fill="white"/>
<path d="M119.287 27.7315C121.773 27.7315 123.297 26.0739 123.297 23.3269C123.297 20.5954 121.765 18.9301 119.287 18.9301C116.802 18.9301 115.27 20.5954 115.27 23.3269C115.27 26.0739 116.794 27.7315 119.287 27.7315ZM119.287 26.2451C117.826 26.2451 117.005 25.179 117.005 23.3269C117.005 21.4903 117.826 20.4164 119.287 20.4164C120.741 20.4164 121.57 21.4903 121.57 23.3269C121.57 25.1712 120.741 26.2451 119.287 26.2451Z" fill="white"/>
<path d="M128.305 26.2996C127.39 26.2996 126.726 25.856 126.726 25.0934C126.726 24.3463 127.257 23.9494 128.43 23.8716L130.509 23.7393V24.4475C130.509 25.498 129.571 26.2996 128.305 26.2996ZM127.875 27.7081C128.992 27.7081 129.923 27.2256 130.431 26.3774H130.564V27.5681H132.182V21.7783C132.182 19.9884 130.978 18.9301 128.844 18.9301C126.913 18.9301 125.538 19.8639 125.366 21.3191H126.991C127.179 20.7199 127.828 20.3775 128.766 20.3775C129.915 20.3775 130.509 20.8833 130.509 21.7783V22.5098L128.203 22.6421C126.178 22.7666 125.037 23.6459 125.037 25.1712C125.037 26.7198 126.233 27.7081 127.875 27.7081Z" fill="white"/>
<path d="M137.885 27.7081C139.057 27.7081 140.05 27.1556 140.558 26.2296H140.691V27.5681H142.301V15.7861H140.62V20.4398H140.495C140.034 19.5059 139.049 18.9534 137.885 18.9534C135.735 18.9534 134.351 20.6499 134.351 23.3269C134.351 26.0117 135.719 27.7081 137.885 27.7081ZM138.361 20.4553C139.768 20.4553 140.652 21.5681 140.652 23.3347C140.652 25.1089 139.776 26.2062 138.361 26.2062C136.939 26.2062 136.087 25.1245 136.087 23.3269C136.087 21.5448 136.947 20.4553 138.361 20.4553Z" fill="white"/>
<path d="M153.199 27.7315C155.684 27.7315 157.209 26.0739 157.209 23.3269C157.209 20.5954 155.677 18.9301 153.199 18.9301C150.713 18.9301 149.181 20.5954 149.181 23.3269C149.181 26.0739 150.705 27.7315 153.199 27.7315ZM153.199 26.2451C151.737 26.2451 150.916 25.179 150.916 23.3269C150.916 21.4903 151.737 20.4164 153.199 20.4164C154.653 20.4164 155.481 21.4903 155.481 23.3269C155.481 25.1712 154.653 26.2451 153.199 26.2451Z" fill="white"/>
<path d="M159.433 27.5681H161.114V22.6109C161.114 21.288 161.903 20.4631 163.146 20.4631C164.389 20.4631 164.983 21.1401 164.983 22.502V27.5681H166.664V22.0818C166.664 20.0662 165.616 18.9301 163.717 18.9301C162.435 18.9301 161.591 19.4981 161.176 20.4398H161.051V19.0935H159.433V27.5681Z" fill="white"/>
<path d="M174.404 16.9846V19.1324H173.051V20.5409H174.404V25.3268C174.404 26.9611 175.146 27.6147 177.014 27.6147C177.343 27.6147 177.655 27.5758 177.929 27.5291V26.1362C177.694 26.1595 177.546 26.1751 177.288 26.1751C176.452 26.1751 176.084 25.786 176.084 24.8988V20.5409H177.929V19.1324H176.084V16.9846H174.404Z" fill="white"/>
<path d="M180.185 27.5681H181.865V22.6187C181.865 21.3347 182.631 20.4709 184.007 20.4709C185.195 20.4709 185.828 21.1557 185.828 22.5098V27.5681H187.509V22.0973C187.509 20.0818 186.391 18.9378 184.578 18.9378C183.296 18.9378 182.397 19.5059 181.983 20.4553H181.85V15.7861H180.185V27.5681Z" fill="white"/>
<path d="M193.571 20.3542C194.814 20.3542 195.627 21.218 195.666 22.5487H191.367C191.461 21.2257 192.329 20.3542 193.571 20.3542ZM195.658 25.2802C195.346 25.9416 194.65 26.3074 193.634 26.3074C192.289 26.3074 191.422 25.3658 191.367 23.8794V23.786H197.378V23.2024C197.378 20.5409 195.948 18.9301 193.579 18.9301C191.18 18.9301 189.655 20.6499 189.655 23.358C189.655 26.0661 191.148 27.7315 193.587 27.7315C195.533 27.7315 196.893 26.7976 197.276 25.2802H195.658Z" fill="white"/>
<path d="M46.6481 38.0696C46.6888 34.9177 48.3891 31.9354 51.0862 30.2845C49.3847 27.8652 46.5347 26.3312 43.5696 26.2389C40.407 25.9084 37.341 28.1229 35.7294 28.1229C34.0867 28.1229 31.6054 26.2717 28.9334 26.3264C25.4507 26.4384 22.2039 28.4098 20.5094 31.4412C16.8671 37.7194 19.5839 46.9464 23.073 52.0213C24.8187 54.5063 26.8589 57.2822 29.5284 57.1837C32.1407 57.0759 33.1163 55.5253 36.2696 55.5253C39.3936 55.5253 40.3089 57.1837 43.0326 57.1212C45.8358 57.0759 47.6019 54.6251 49.2863 52.1165C50.5405 50.3458 51.5057 48.3889 52.146 46.3181C48.8518 44.931 46.6519 41.6305 46.6481 38.0696Z" fill="white"/>
<path d="M41.5034 22.9014C43.0318 21.0747 43.7848 18.7269 43.6024 16.3564C41.2674 16.6006 39.1105 17.7117 37.5615 19.4682C36.0468 21.1845 35.2585 23.491 35.4075 25.7708C37.7434 25.7948 40.0397 24.7138 41.5034 22.9014Z" fill="white"/>
</svg>
