<svg width="254" height="75" viewBox="0 0 254 75" fill="none" xmlns="http://www.w3.org/2000/svg">
<rect x="0.5" y="0.505859" width="253" height="74" rx="6.5" fill="#0C0D10"/>
<rect x="0.5" y="0.505859" width="253" height="74" rx="6.5" stroke="#A6A6A6"/>
<path d="M172.563 36.0075V40.3032H169.524V43.1203H172.563V52.6921C172.563 55.9605 174.232 57.2679 178.432 57.2679C179.17 57.2679 179.872 57.1901 180.487 57.0967V54.3108C179.96 54.3574 179.626 54.3886 179.047 54.3886C177.167 54.3886 176.341 53.6104 176.341 51.8361V43.1203H180.487V40.3032H176.341V36.0075H172.563Z" fill="white"/>
<path d="M191.185 57.5014C196.772 57.5014 200.198 54.1862 200.198 48.6922C200.198 43.2292 196.754 39.8985 191.185 39.8985C185.597 39.8985 182.154 43.2292 182.154 48.6922C182.154 54.1862 185.58 57.5014 191.185 57.5014ZM191.185 54.5286C187.899 54.5286 186.054 52.3964 186.054 48.6922C186.054 45.0191 187.899 42.8712 191.185 42.8712C194.453 42.8712 196.315 45.0191 196.315 48.6922C196.315 52.3808 194.453 54.5286 191.185 54.5286Z" fill="white"/>
<path d="M203.129 57.1745H206.907V47.1669C206.907 44.7856 208.928 43.1825 211.791 43.1825C212.459 43.1825 213.584 43.2915 213.9 43.3849V40.0853C213.496 39.9919 212.775 39.9452 212.213 39.9452C209.718 39.9452 207.592 41.1592 207.048 42.8245H206.766V40.2254H203.129V57.1745Z" fill="white"/>
<path d="M223.279 42.7467C226.073 42.7467 227.9 44.4743 227.988 47.1358H218.325C218.536 44.4899 220.486 42.7467 223.279 42.7467ZM227.971 52.5987C227.268 53.9217 225.704 54.6532 223.42 54.6532C220.398 54.6532 218.448 52.7699 218.325 49.7972V49.6104H231.836V48.4431C231.836 43.1203 228.621 39.8985 223.297 39.8985C217.903 39.8985 214.477 43.3382 214.477 48.7544C214.477 54.1707 217.833 57.5014 223.315 57.5014C227.689 57.5014 230.747 55.6337 231.608 52.5987H227.971Z" fill="white"/>
<path d="M147.791 50.9155C148.082 55.0774 151.997 57.7391 157.825 57.7391C164.053 57.7391 167.95 54.9484 167.95 50.496C167.95 46.9955 165.728 45.0597 160.338 43.9466L157.442 43.3175C154.019 42.6077 152.635 41.6559 152.635 39.9944C152.635 37.8973 154.784 36.5261 158.007 36.5261C161.066 36.5261 163.179 37.865 163.561 40.0105H167.531C167.294 36.0905 163.397 33.332 158.062 33.332C152.325 33.332 148.501 36.0905 148.501 40.2364C148.501 43.6562 150.668 45.6888 155.421 46.6729L158.808 47.3988C162.286 48.1247 163.816 49.1894 163.816 50.9639C163.816 53.0287 161.412 54.5289 158.134 54.5289C154.62 54.5289 152.18 53.1255 151.833 50.9155H147.791Z" fill="white"/>
<path d="M108.659 39.9452C106.059 39.9452 103.81 41.0969 102.65 43.0269H102.369V40.2254H98.7321V62.8087H102.51V54.6065H102.808C103.81 56.3963 105.971 57.4547 108.694 57.4547C113.526 57.4547 116.601 54.0773 116.601 48.6922C116.601 43.307 113.526 39.9452 108.659 39.9452ZM107.587 54.4508C104.425 54.4508 102.439 52.2407 102.439 48.7077C102.439 45.1591 104.425 42.9491 107.605 42.9491C110.803 42.9491 112.718 45.1125 112.718 48.6922C112.718 52.2874 110.803 54.4508 107.587 54.4508Z" fill="white"/>
<path d="M129.819 39.9452C127.219 39.9452 124.97 41.0969 123.81 43.0269H123.529V40.2254H119.892V62.8087H123.67V54.6065H123.968C124.97 56.3963 127.131 57.4547 129.854 57.4547C134.686 57.4547 137.761 54.0773 137.761 48.6922C137.761 43.307 134.686 39.9452 129.819 39.9452ZM128.747 54.4508C125.585 54.4508 123.599 52.2407 123.599 48.7077C123.599 45.1591 125.585 42.9491 128.765 42.9491C131.963 42.9491 133.878 45.1125 133.878 48.6922C133.878 52.2874 131.963 54.4508 128.747 54.4508Z" fill="white"/>
<path d="M91.9546 57.1745H96.2887L86.8009 33.8966H82.4121L72.9243 57.1745H77.1128L79.5348 50.9961H89.5508L91.9546 57.1745ZM84.3971 38.1231H84.7067L88.5127 47.9634H80.5728L84.3971 38.1231Z" fill="white"/>
<path d="M75.4614 16.3387V27.5681H80.0384C83.816 27.5681 86.0034 25.5058 86.0034 21.9183C86.0034 18.3853 83.7984 16.3387 80.0384 16.3387H75.4614ZM77.4293 17.9262H79.8188C82.4455 17.9262 84.0004 19.4048 84.0004 21.9417C84.0004 24.5175 82.4719 25.9805 79.8188 25.9805H77.4293V17.9262Z" fill="white"/>
<path d="M92.7029 27.7315C95.4965 27.7315 97.2096 26.0739 97.2096 23.3269C97.2096 20.5954 95.4877 18.9301 92.7029 18.9301C89.9092 18.9301 88.1874 20.5954 88.1874 23.3269C88.1874 26.0739 89.9004 27.7315 92.7029 27.7315ZM92.7029 26.2451C91.0601 26.2451 90.1376 25.179 90.1376 23.3269C90.1376 21.4903 91.0601 20.4164 92.7029 20.4164C94.3369 20.4164 95.2681 21.4903 95.2681 23.3269C95.2681 25.1712 94.3369 26.2451 92.7029 26.2451Z" fill="white"/>
<path d="M111.798 19.0935H109.909L108.205 25.5603H108.056L106.088 19.0935H104.278L102.31 25.5603H102.17L100.456 19.0935H98.5414L101.177 27.5681H103.118L105.086 21.3269H105.236L107.212 27.5681H109.171L111.798 19.0935Z" fill="white"/>
<path d="M113.973 27.5681H115.862V22.6109C115.862 21.288 116.749 20.4631 118.146 20.4631C119.543 20.4631 120.21 21.1401 120.21 22.502V27.5681H122.099V22.0818C122.099 20.0662 120.922 18.9301 118.787 18.9301C117.347 18.9301 116.398 19.4981 115.932 20.4398H115.792V19.0935H113.973V27.5681Z" fill="white"/>
<path d="M125.074 27.5681H126.963V15.7861H125.074V27.5681Z" fill="white"/>
<path d="M134.066 27.7315C136.86 27.7315 138.573 26.0739 138.573 23.3269C138.573 20.5954 136.851 18.9301 134.066 18.9301C131.272 18.9301 129.551 20.5954 129.551 23.3269C129.551 26.0739 131.264 27.7315 134.066 27.7315ZM134.066 26.2451C132.423 26.2451 131.501 25.179 131.501 23.3269C131.501 21.4903 132.423 20.4164 134.066 20.4164C135.7 20.4164 136.631 21.4903 136.631 23.3269C136.631 25.1712 135.7 26.2451 134.066 26.2451Z" fill="white"/>
<path d="M144.2 26.2996C143.173 26.2996 142.426 25.856 142.426 25.0934C142.426 24.3463 143.023 23.9494 144.341 23.8716L146.678 23.7393V24.4475C146.678 25.498 145.624 26.2996 144.2 26.2996ZM143.717 27.7081C144.974 27.7081 146.019 27.2256 146.59 26.3774H146.739V27.5681H148.558V21.7783C148.558 19.9884 147.205 18.9301 144.807 18.9301C142.637 18.9301 141.091 19.8639 140.897 21.3191H142.725C142.935 20.7199 143.665 20.3775 144.719 20.3775C146.01 20.3775 146.678 20.8833 146.678 21.7783V22.5098L144.086 22.6421C141.811 22.7666 140.528 23.6459 140.528 25.1712C140.528 26.7198 141.872 27.7081 143.717 27.7081Z" fill="white"/>
<path d="M154.967 27.7081C156.285 27.7081 157.401 27.1556 157.972 26.2296H158.121V27.5681H159.931V15.7861H158.042V20.4398H157.902C157.383 19.5059 156.276 18.9534 154.967 18.9534C152.551 18.9534 150.997 20.6499 150.997 23.3269C150.997 26.0117 152.534 27.7081 154.967 27.7081ZM155.503 20.4553C157.085 20.4553 158.077 21.5681 158.077 23.3347C158.077 25.1089 157.093 26.2062 155.503 26.2062C153.904 26.2062 152.947 25.1245 152.947 23.3269C152.947 21.5448 153.913 20.4553 155.503 20.4553Z" fill="white"/>
<path d="M172.179 27.7315C174.973 27.7315 176.686 26.0739 176.686 23.3269C176.686 20.5954 174.964 18.9301 172.179 18.9301C169.385 18.9301 167.663 20.5954 167.663 23.3269C167.663 26.0739 169.377 27.7315 172.179 27.7315ZM172.179 26.2451C170.536 26.2451 169.614 25.179 169.614 23.3269C169.614 21.4903 170.536 20.4164 172.179 20.4164C173.813 20.4164 174.744 21.4903 174.744 23.3269C174.744 25.1712 173.813 26.2451 172.179 26.2451Z" fill="white"/>
<path d="M179.186 27.5681H181.075V22.6109C181.075 21.288 181.962 20.4631 183.359 20.4631C184.756 20.4631 185.423 21.1401 185.423 22.502V27.5681H187.312V22.0818C187.312 20.0662 186.135 18.9301 184 18.9301C182.559 18.9301 181.61 19.4981 181.145 20.4398H181.004V19.0935H179.186V27.5681Z" fill="white"/>
<path d="M196.011 16.9846V19.1324H194.491V20.5409H196.011V25.3268C196.011 26.9611 196.845 27.6147 198.945 27.6147C199.314 27.6147 199.665 27.5758 199.973 27.5291V26.1362C199.709 26.1595 199.542 26.1751 199.253 26.1751C198.313 26.1751 197.9 25.786 197.9 24.8988V20.5409H199.973V19.1324H197.9V16.9846H196.011Z" fill="white"/>
<path d="M202.508 27.5681H204.397V22.6187C204.397 21.3347 205.258 20.4709 206.804 20.4709C208.139 20.4709 208.851 21.1557 208.851 22.5098V27.5681H210.74V22.0973C210.74 20.0818 209.484 18.9378 207.445 18.9378C206.005 18.9378 204.994 19.5059 204.529 20.4553H204.379V15.7861H202.508V27.5681Z" fill="white"/>
<path d="M217.553 20.3542C218.95 20.3542 219.864 21.218 219.908 22.5487H215.076C215.181 21.2257 216.157 20.3542 217.553 20.3542ZM219.899 25.2802C219.548 25.9416 218.766 26.3074 217.624 26.3074C216.113 26.3074 215.138 25.3658 215.076 23.8794V23.786H221.832V23.2024C221.832 20.5409 220.224 18.9301 217.562 18.9301C214.865 18.9301 213.152 20.6499 213.152 23.358C213.152 26.0661 214.83 27.7315 217.571 27.7315C219.758 27.7315 221.287 26.7976 221.717 25.2802H219.899Z" fill="white"/>
<path d="M52.4279 38.0696C52.4738 34.9177 54.3846 31.9354 57.416 30.2845C55.5036 27.8652 52.3005 26.3312 48.968 26.2389C45.4136 25.9084 41.9678 28.1229 40.1565 28.1229C38.3102 28.1229 35.5215 26.2717 32.5185 26.3264C28.6043 26.4384 24.9552 28.4098 23.0509 31.4412C18.9572 37.7194 22.0107 46.9464 25.9321 52.0213C27.894 54.5063 30.187 57.2822 33.1872 57.1837C36.1232 57.0759 37.2197 55.5253 40.7636 55.5253C44.2747 55.5253 45.3034 57.1837 48.3646 57.1212C51.515 57.0759 53.4999 54.6251 55.393 52.1165C56.8026 50.3458 57.8874 48.3889 58.607 46.3181C54.9047 44.931 52.4322 41.6305 52.4279 38.0696Z" fill="white"/>
<path d="M46.6459 22.9014C48.3636 21.0747 49.2099 18.7269 49.005 16.3564C46.3806 16.6006 43.9565 17.7117 42.2156 19.4682C40.5132 21.1845 39.6272 23.491 39.7947 25.7708C42.42 25.7948 45.0008 24.7138 46.6459 22.9014Z" fill="white"/>
</svg>
