<svg width="48" height="48" viewBox="0 0 48 48" fill="none" xmlns="http://www.w3.org/2000/svg">
<path d="M24.0457 48.0059H23.9402C10.7397 48.0059 0 37.263 0 24.0587V23.9531C0 10.7487 10.7397 0.00585938 23.9402 0.00585938H24.0457C37.2462 0.00585938 47.9859 10.7487 47.9859 23.9531V24.0587C47.9859 37.263 37.2462 48.0059 24.0457 48.0059ZM23.9402 1.63061C11.6347 1.63061 1.62427 11.644 1.62427 23.9531V24.0587C1.62427 36.3678 11.6347 46.3811 23.9402 46.3811H24.0457C36.3512 46.3811 46.3616 36.3678 46.3616 24.0587V23.9531C46.3616 11.644 36.3512 1.63061 24.0457 1.63061H23.9402Z" fill="white"/>
<path d="M27.2213 18.6232V23.6745H33.4683L32.4791 30.479H27.2213V46.1562C26.1672 46.3024 25.0887 46.3788 23.9939 46.3788C22.7302 46.3788 21.4893 46.2781 20.2808 46.0831V30.479H14.5195V23.6745H20.2808V17.494C20.2808 13.6596 23.3881 10.5498 27.223 10.5498V10.5531C27.2343 10.5531 27.2441 10.5498 27.2555 10.5498H33.4699V16.4346H29.4092C28.2024 16.4346 27.223 17.4144 27.223 18.6216L27.2213 18.6232Z" fill="white"/>
</svg>
