<svg width="254" height="75" viewBox="0 0 254 75" fill="none" xmlns="http://www.w3.org/2000/svg">
<rect x="0.5" y="0.505859" width="253" height="74" rx="4.5" fill="black"/>
<rect x="0.5" y="0.505859" width="253" height="74" rx="4.5" stroke="#A6A6A6"/>
<path d="M201.195 56.2556H204.706V32.8151H201.195V56.2556ZM232.817 41.2594L228.793 51.4217H228.672L224.496 41.2594H220.714L226.979 55.4625L223.406 63.3638H227.068L236.721 41.2594H232.817ZM212.906 53.5933C211.758 53.5933 210.153 53.0197 210.153 51.6026C210.153 49.7934 212.151 49.0999 213.875 49.0999C215.417 49.0999 216.146 49.431 217.083 49.8836C216.81 52.0552 214.934 53.5933 212.906 53.5933ZM213.331 40.7466C210.789 40.7466 208.157 41.8627 207.067 44.3355L210.183 45.6319C210.849 44.3355 212.089 43.9136 213.391 43.9136C215.207 43.9136 217.052 44.9983 217.083 46.929V47.1699C216.447 46.8081 215.084 46.2654 213.421 46.2654C210.061 46.2654 206.642 48.1044 206.642 51.5424C206.642 54.6787 209.397 56.6995 212.482 56.6995C214.842 56.6995 216.146 55.644 216.96 54.4071H217.083V56.2176H220.473V47.2299C220.473 43.0684 217.353 40.7466 213.331 40.7466ZM191.634 44.1127H186.64V36.0782H191.634C194.258 36.0782 195.748 38.2432 195.748 40.0954C195.748 41.9119 194.258 44.1127 191.634 44.1127ZM191.543 32.8151H183.131V56.2556H186.64V47.3751H191.543C195.434 47.3751 199.259 44.5684 199.259 40.0954C199.259 35.6233 195.434 32.8151 191.543 32.8151ZM145.67 53.5976C143.245 53.5976 141.215 51.5732 141.215 48.7952C141.215 45.9849 143.245 43.9318 145.67 43.9318C148.065 43.9318 149.944 45.9849 149.944 48.7952C149.944 51.5732 148.065 53.5976 145.67 53.5976ZM149.701 42.5719H149.58C148.792 41.6357 147.276 40.7899 145.367 40.7899C141.365 40.7899 137.698 44.2944 137.698 48.7952C137.698 53.2652 141.365 56.739 145.367 56.739C147.276 56.739 148.792 55.893 149.58 54.927H149.701V56.0739C149.701 59.126 148.065 60.7563 145.428 60.7563C143.276 60.7563 141.943 59.2161 141.396 57.9175L138.335 59.186C139.214 61.2998 141.547 63.8984 145.428 63.8984C149.551 63.8984 153.037 61.4815 153.037 55.5906V41.2732H149.701V42.5719ZM155.462 56.2556H158.977V32.8151H155.462V56.2556ZM164.16 48.5227C164.07 45.4414 166.556 43.8711 168.343 43.8711C169.738 43.8711 170.919 44.5661 171.315 45.5623L164.16 48.5227ZM175.072 45.864C174.405 44.0827 172.375 40.7899 168.222 40.7899C164.099 40.7899 160.674 44.022 160.674 48.7644C160.674 53.2352 164.07 56.739 168.615 56.739C172.283 56.739 174.405 54.5044 175.285 53.205L172.557 51.3922C171.647 52.7216 170.405 53.5976 168.615 53.5976C166.828 53.5976 165.554 52.7818 164.737 51.1807L175.436 46.7707L175.072 45.864ZM89.8263 43.2367V46.6198H97.9496C97.707 48.5227 97.0705 49.9121 96.1004 50.8789C94.9179 52.0566 93.0688 53.3559 89.8263 53.3559C84.8247 53.3559 80.9148 49.3386 80.9148 44.3544C80.9148 39.3703 84.8247 35.3524 89.8263 35.3524C92.5241 35.3524 94.4938 36.4099 95.949 37.7692L98.3443 35.3824C96.3129 33.4494 93.6156 31.9693 89.8263 31.9693C82.9748 31.9693 77.2158 37.5276 77.2158 44.3544C77.2158 51.1807 82.9748 56.739 89.8263 56.739C93.5237 56.739 96.3129 55.5306 98.495 53.2652C100.738 51.0298 101.436 47.8884 101.436 45.3506C101.436 44.5661 101.374 43.8411 101.253 43.2367H89.8263ZM110.671 53.5976C108.246 53.5976 106.154 51.6039 106.154 48.7644C106.154 45.8947 108.246 43.9318 110.671 43.9318C113.095 43.9318 115.187 45.8947 115.187 48.7644C115.187 51.6039 113.095 53.5976 110.671 53.5976ZM110.671 40.7899C106.244 40.7899 102.638 44.1427 102.638 48.7644C102.638 53.3559 106.244 56.739 110.671 56.739C115.096 56.739 118.703 53.3559 118.703 48.7644C118.703 44.1427 115.096 40.7899 110.671 40.7899ZM128.193 53.5976C125.769 53.5976 123.677 51.6039 123.677 48.7644C123.677 45.8947 125.769 43.9318 128.193 43.9318C130.618 43.9318 132.709 45.8947 132.709 48.7644C132.709 51.6039 130.618 53.5976 128.193 53.5976ZM128.193 40.7899C123.768 40.7899 120.161 44.1427 120.161 48.7644C120.161 53.3559 123.768 56.739 128.193 56.739C132.62 56.739 136.226 53.3559 136.226 48.7644C136.226 44.1427 132.62 40.7899 128.193 40.7899Z" fill="white"/>
<path d="M83.683 24.8203C81.9962 24.8203 80.5453 24.2288 79.3755 23.0632C78.2051 21.8969 77.6123 20.4364 77.6123 18.7383C77.6123 17.0401 78.2054 15.5823 79.3755 14.4133C80.5453 13.2475 81.9962 12.6562 83.683 12.6562C84.5424 12.6562 85.3445 12.8042 86.1109 13.1122C86.8777 13.4202 87.505 13.8478 87.999 14.4075L88.1155 14.5397L86.7996 15.8507L86.668 15.6896C86.3405 15.2884 85.9238 14.9768 85.3958 14.7502C84.8698 14.5243 84.2936 14.4199 83.683 14.4199C82.4949 14.4199 81.5091 14.822 80.6859 15.6394C80.6857 15.6396 80.6853 15.6396 80.6851 15.6398C79.8806 16.4737 79.4761 17.4889 79.4761 18.7383C79.4761 19.9886 79.8811 21.0041 80.6866 21.8383C81.5098 22.6553 82.4955 23.0596 83.683 23.0596C84.7706 23.0596 85.6701 22.757 86.3773 22.158H86.3777C87.0361 21.6005 87.4312 20.8471 87.5709 19.8867H83.4949V18.1582H89.3326L89.3576 18.3164C89.4054 18.6203 89.4392 18.9136 89.4392 19.1953C89.4392 20.8081 88.9458 22.1247 87.9777 23.0933C86.8849 24.2477 85.4478 24.8203 83.683 24.8203L83.683 24.8203ZM134.374 24.8203C132.684 24.8203 131.25 24.2285 130.095 23.0632C130.095 23.0631 130.095 23.063 130.095 23.0628C130.095 23.0627 130.095 23.0627 130.095 23.0625C128.938 21.9097 128.365 20.449 128.365 18.7383C128.365 17.0275 128.938 15.5668 130.095 14.414C130.095 14.4139 130.095 14.4138 130.095 14.4137L130.095 14.4133C131.25 13.2478 132.684 12.6562 134.374 12.6562C136.06 12.6562 137.494 13.2479 138.649 14.4309C139.805 15.5834 140.38 17.0414 140.38 18.7382C140.38 20.449 139.806 21.9097 138.649 23.0625L138.649 23.0628C137.494 24.229 136.046 24.8203 134.374 24.8203L134.374 24.8203ZM91.1097 24.5683V12.9082H91.2979H98.0977V14.6719H92.9412V17.874H97.592V19.6025H92.9412V22.8076H98.0977V24.5683H91.1097ZM102.374 24.5683V14.6719H99.2111V12.9082H107.369V14.6719H107.181H104.206V24.5683H102.374ZM112.583 24.5683V12.9082H114.414V13.0957V24.5683H112.583ZM119.025 24.5683V14.6719H115.861V12.9082H124.019V14.6719H123.831H120.856V24.5683H119.025ZM142.005 24.5683V12.9082H144.07L149.327 21.2937L149.281 19.7018V12.9082H151.113V24.5683H149.3L143.792 15.7591L143.837 17.35V17.3525V24.5683H142.005ZM134.374 23.0596C135.562 23.0596 136.532 22.6557 137.322 21.8397L137.323 21.8382L137.324 21.8371C138.126 21.0378 138.519 20.0088 138.519 18.7382C138.519 17.4708 138.126 16.4383 137.324 15.6393L137.323 15.6382L137.322 15.6371C136.532 14.8212 135.562 14.4198 134.374 14.4198C133.183 14.4198 132.213 14.8205 131.408 15.6363L131.407 15.6371C130.62 16.4555 130.228 17.4711 130.228 18.7382C130.228 20.0083 130.62 21.0207 131.407 21.8392L131.408 21.84C132.214 22.656 133.183 23.0595 134.374 23.0595V23.0596Z" fill="white"/>
<path d="M38.9741 36.4245L18.9429 57.6121C18.9436 57.6164 18.9451 57.6201 18.9459 57.6245C19.5602 59.925 21.6688 61.6191 24.1713 61.6191C25.1717 61.6191 26.1109 61.3496 26.9164 60.8765L26.9804 60.8391L49.528 47.8731L38.9741 36.4245Z" fill="#EA4335"/>
<path d="M59.2396 32.8169L59.2204 32.8038L49.486 27.1801L38.519 36.9053L49.5242 47.8711L59.2073 42.3033C60.9049 41.39 62.0573 39.6065 62.0573 37.5498C62.0573 35.5079 60.9203 33.7332 59.2396 32.8169Z" fill="#FBBC04"/>
<path d="M18.942 17.3993C18.8216 17.8418 18.7583 18.3053 18.7583 18.7866V56.2259C18.7583 56.7063 18.8208 57.1714 18.9428 57.6123L39.6633 36.9668L18.942 17.3993Z" fill="#4285F4"/>
<path d="M39.1215 37.5059L49.4896 27.1765L26.9675 14.1636C26.1489 13.675 25.1935 13.393 24.1711 13.393C21.6685 13.393 19.5571 15.09 18.9426 17.3935C18.9419 17.3957 18.9419 17.3972 18.9419 17.3993L39.1215 37.5059Z" fill="#34A853"/>
</svg>
