<svg width="49" height="48" viewBox="0 0 49 48" fill="none" xmlns="http://www.w3.org/2000/svg">
<path d="M25.0174 48.0059H24.9118C11.7114 48.0059 0.97168 37.263 0.97168 24.0587V23.953C0.97168 10.7487 11.7114 0.00585938 24.9118 0.00585938H25.0174C38.2179 0.00585938 48.9576 10.7487 48.9576 23.953V24.0587C48.9576 37.263 38.2179 48.0059 25.0174 48.0059ZM24.9118 1.63061C12.6063 1.63061 2.59595 11.6439 2.59595 23.953V24.0587C2.59595 36.3678 12.6063 46.3811 24.9118 46.3811H25.0174C37.3229 46.3811 47.3333 36.3678 47.3333 24.0587V23.953C47.3333 11.6439 37.3229 1.63061 25.0174 1.63061H24.9118Z" fill="white"/>
<path d="M10.5641 23.2149C10.6291 23.1824 10.6941 23.1515 10.7574 23.1223C11.8587 22.6121 12.9745 22.1344 14.0888 21.6567C14.1489 21.6567 14.2496 21.5869 14.3064 21.5641C14.3925 21.5267 14.4786 21.491 14.5647 21.4536C14.7304 21.3822 14.896 21.3123 15.0601 21.2408C15.3914 21.0994 15.7212 20.9581 16.0525 20.8168C16.7136 20.534 17.3747 20.2513 18.0357 19.967C19.3579 19.4016 20.6817 18.8345 22.0039 18.2691C23.326 17.7037 24.6498 17.1367 25.9719 16.5713C27.2941 16.0058 28.6179 15.4388 29.94 14.8734C31.2622 14.308 32.586 13.741 33.9082 13.1755C34.2022 13.0488 34.5205 12.8603 34.8356 12.8051C35.1004 12.758 35.3586 12.667 35.625 12.6166C36.1301 12.5208 36.6873 12.4818 37.1713 12.6914C37.3386 12.7645 37.4929 12.8668 37.6212 12.9952C38.2352 13.6028 38.1491 14.6005 38.0192 15.4551C37.1144 21.4114 36.2097 27.3694 35.3034 33.3257C35.1799 34.143 35.011 35.0398 34.3662 35.5565C33.8204 35.9935 33.044 36.0423 32.3699 35.857C31.6959 35.6702 31.1014 35.2786 30.5183 34.8936C28.0997 33.2916 25.6796 31.6896 23.261 30.0876C22.6861 29.7074 22.0461 29.2102 22.0526 28.5197C22.0558 28.1037 22.3043 27.7333 22.5577 27.4035C24.6595 24.6609 27.6921 22.7762 29.9482 20.1603C30.2665 19.7915 30.5167 19.1254 30.0797 18.9125C29.8199 18.7858 29.521 18.958 29.2838 19.1221C26.3017 21.1937 23.3211 23.2668 20.339 25.3384C19.366 26.0143 18.346 26.7097 17.1733 26.8754C16.124 27.0249 15.0682 26.7324 14.0531 26.4335C13.2019 26.1833 12.3524 25.9266 11.5062 25.6617C11.0562 25.522 10.5917 25.3709 10.2441 25.0541C9.89651 24.7372 9.69675 24.2044 9.90628 23.7819C10.0378 23.5171 10.2929 23.3497 10.5609 23.2133L10.5641 23.2149Z" fill="white"/>
</svg>
