<svg width="49" height="48" viewBox="0 0 49 48" fill="none" xmlns="http://www.w3.org/2000/svg">
<path d="M25.0316 48.0059H24.926C11.7255 48.0059 0.98584 37.263 0.98584 24.0587V23.953C0.98584 10.7487 11.7255 0.00585938 24.926 0.00585938H25.0316C38.232 0.00585938 48.9717 10.7487 48.9717 23.953V24.0587C48.9717 37.263 38.232 48.0059 25.0316 48.0059ZM24.926 1.63061C12.6205 1.63061 2.61011 11.6439 2.61011 23.953V24.0587C2.61011 36.3678 12.6205 46.3811 24.926 46.3811H25.0316C37.3371 46.3811 47.3474 36.3678 47.3474 24.0587V23.953C47.3474 11.6439 37.3371 1.63061 25.0316 1.63061H24.926Z" fill="white"/>
<path d="M31.8403 25.7415V25.5865C31.8403 25.0008 31.924 24.4618 32.0913 23.9697C32.2587 23.4725 32.5048 23.0419 32.8296 22.6777C33.1545 22.3134 33.5532 22.0304 34.0257 21.8286C34.4982 21.6219 35.0396 21.5186 35.6499 21.5186C36.27 21.5186 36.8164 21.6219 37.2889 21.8286C37.7663 22.0304 38.1674 22.3134 38.4923 22.6777C38.8171 23.0419 39.0632 23.4725 39.2306 23.9697C39.3979 24.4618 39.4816 25.0008 39.4816 25.5865V25.7415C39.4816 26.3223 39.3979 26.8613 39.2306 27.3584C39.0632 27.8506 38.8171 28.2812 38.4923 28.6504C38.1674 29.0146 37.7688 29.2976 37.2963 29.4994C36.8238 29.7012 36.2799 29.8021 35.6646 29.8021C35.0543 29.8021 34.5105 29.7012 34.033 29.4994C33.5556 29.2976 33.1545 29.0146 32.8296 28.6504C32.5048 28.2812 32.2587 27.8506 32.0913 27.3584C31.924 26.8613 31.8403 26.3223 31.8403 25.7415ZM34.1512 25.5865V25.7415C34.1512 26.0565 34.1758 26.3519 34.225 26.6275C34.2791 26.9031 34.3653 27.1443 34.4834 27.351C34.6015 27.5577 34.7566 27.7201 34.9485 27.8383C35.1454 27.9515 35.3841 28.0081 35.6646 28.0081C35.9452 28.0081 36.1814 27.9515 36.3734 27.8383C36.5654 27.7201 36.7204 27.5577 36.8385 27.351C36.9566 27.1443 37.0403 26.9031 37.0895 26.6275C37.1437 26.3519 37.1707 26.0565 37.1707 25.7415V25.5865C37.1707 25.2764 37.1437 24.986 37.0895 24.7153C37.0403 24.4397 36.9566 24.1961 36.8385 23.9844C36.7204 23.7728 36.5629 23.6079 36.366 23.4898C36.1741 23.3716 35.9354 23.3126 35.6499 23.3126C35.3743 23.3126 35.1405 23.3716 34.9485 23.4898C34.7566 23.6079 34.6015 23.7728 34.4834 23.9844C34.3653 24.1961 34.2791 24.4397 34.225 24.7153C34.1758 24.986 34.1512 25.2764 34.1512 25.5865Z" fill="white"/>
<path d="M30.512 18.3145V29.6545H28.2012V18.3145H30.512Z" fill="white"/>
<path d="M24.2513 27.7497V24.324C24.2513 24.0829 24.2143 23.8761 24.1405 23.7039C24.0667 23.5316 23.951 23.3963 23.7935 23.2978C23.636 23.1994 23.4318 23.1502 23.1807 23.1502C22.9691 23.1502 22.7845 23.1871 22.627 23.2609C22.4744 23.3347 22.3563 23.4406 22.2726 23.5784C22.1939 23.7162 22.1545 23.886 22.1545 24.0878H19.8511C19.8511 23.7285 19.9323 23.3938 20.0947 23.0837C20.2571 22.7736 20.4885 22.5005 20.7887 22.2642C21.0939 22.028 21.4581 21.8459 21.8814 21.7179C22.3046 21.585 22.7796 21.5186 23.3062 21.5186C23.9313 21.5186 24.4875 21.6244 24.9748 21.836C25.467 22.0427 25.8558 22.3553 26.1413 22.7736C26.4267 23.1871 26.5695 23.7088 26.5695 24.3388V27.6832C26.5695 28.1656 26.5965 28.5446 26.6507 28.8202C26.7097 29.0909 26.7934 29.3271 26.9017 29.5289V29.6545H24.5761C24.4678 29.4231 24.3866 29.1377 24.3325 28.798C24.2783 28.4535 24.2513 28.1041 24.2513 27.7497ZM24.5392 24.7818L24.5539 26.0516H23.4096C23.1537 26.0516 22.9322 26.0836 22.7452 26.1476C22.563 26.2116 22.4154 26.3002 22.3022 26.4134C22.189 26.5217 22.1053 26.6496 22.0512 26.7973C22.0019 26.94 21.9773 27.0975 21.9773 27.2698C21.9773 27.4322 22.0167 27.5799 22.0955 27.7128C22.1742 27.8407 22.2825 27.9416 22.4203 28.0155C22.5581 28.0893 22.7181 28.1262 22.9002 28.1262C23.2004 28.1262 23.4564 28.0671 23.668 27.949C23.8846 27.8309 24.0519 27.6882 24.17 27.5208C24.2882 27.3485 24.3472 27.1886 24.3472 27.0409L24.9009 28.0007C24.8123 28.1976 24.7041 28.4018 24.5761 28.6135C24.4481 28.8202 24.2857 29.0146 24.0888 29.1967C23.892 29.3739 23.6532 29.5191 23.3727 29.6323C23.0971 29.7455 22.7648 29.8021 22.376 29.8021C21.874 29.8021 21.4187 29.7012 21.0102 29.4994C20.6017 29.2927 20.2744 29.0097 20.0283 28.6504C19.7871 28.2911 19.6665 27.8776 19.6665 27.4101C19.6665 26.9917 19.7428 26.6201 19.8954 26.2953C20.048 25.9704 20.2768 25.6948 20.582 25.4684C20.8921 25.242 21.2809 25.0722 21.7485 24.959C22.216 24.8408 22.7624 24.7818 23.3875 24.7818H24.5392Z" fill="white"/>
<path d="M18.8545 27.7942V29.6547H11.1542V27.7942H18.8545ZM18.7733 20.1899L12.2837 29.6547H10.5709V28.3406L17.1195 18.9053H18.7733V20.1899ZM17.9759 18.9053V20.7731H10.5562V18.9053H17.9759Z" fill="white"/>
</svg>
